<svg xmlns="http://www.w3.org/2000/svg" viewBox="0 0 128 128">
  <g fill="none">
    <path fill="#000" d="M64 128l-2.259-2.155C13.176 80.593 0 64.646 0 38.788 0 17.239 15.059 0 33.882 0 49.318 0 57.976 9.912 64 17.67 70.024 9.912 78.682 0 94.118 0 112.94 0 128 17.24 128 38.788c0 25.858-13.176 41.805-61.741 87.057L64 128z"/>
    <path fill="#FFF" d="M102.467 33.654l-1.638 7.634h-6.14l2.046-7.27c.41-2.181.41-4-2.456-4s-4.094 1.819-4.504 4l-1.638 6.18a12.257 12.257 0 0 0 0 5.452l5.732 14.904c.82 2.181 1.228 4.726.41 7.27l-2.457 9.452C90.185 82.728 85.681 86 79.95 86c-6.55 0-9.416-2.545-7.779-8.724l2.047-7.998h6.142l-2.047 7.634c-.82 2.908 0 4.362 2.865 4.362 2.457 0 4.095-1.817 4.913-4.362l2.047-8.36c.41-1.818.41-4-.409-5.817l-5.322-13.813c-.82-2.545-1.229-4.363-.82-7.634l1.639-7.27c1.637-5.817 5.731-8.725 11.872-8.725 6.96 0 9.008 2.908 7.37 8.361zM57.28 86l13.043-56.165h-6.138L65.337 25H83.75l-1.15 4.835h-6.522L63.035 86h-5.754zm-18.875 0l5.427-53.933L31.04 86H26l14.344-60.628h8.529l-5.428 51.701L55.851 25h5.04L46.547 86h-8.141z"/>
  </g>
</svg>
